<svg xmlns="http://www.w3.org/2000/svg" viewBox="0 0 512 512" role="img" aria-labelledby="title desc">
  <title id="title">Ruth Codeframe</title>
  <desc id="desc">A clean code bracket and letter R logo for a software developer portfolio.</desc>
  <defs>
    <linearGradient id="g" x1="104" y1="112" x2="408" y2="402" gradientUnits="userSpaceOnUse">
      <stop offset="0" stop-color="#06B6D4"/>
      <stop offset="1" stop-color="#2563EB"/>
    </linearGradient>
  </defs>
  <rect x="42" y="42" width="428" height="428" rx="112" fill="#07101E"/>
  <path d="m184 152-76 104 76 104" fill="none" stroke="url(#g)" stroke-width="28" stroke-linecap="round" stroke-linejoin="round"/>
  <path d="m328 152 76 104-76 104" fill="none" stroke="url(#g)" stroke-width="28" stroke-linecap="round" stroke-linejoin="round"/>
  <path d="M214 350V162h77c48 0 79 25 79 66 0 29-15 50-42 61l51 61h-54l-44-54h-23v54h-44Zm44-93h31c23 0 36-10 36-28 0-17-13-27-36-27h-31v55Z" fill="#F8FAFC"/>
  <circle cx="256" cy="402" r="10" fill="#22D3EE"/>
</svg>